<svg width="30" height="30" viewBox="0 0 30 30" fill="none" xmlns="http://www.w3.org/2000/svg">
<path d="M14.8 0C22.94 0 29.6 6.66 29.6 14.8C29.6 22.94 22.94 29.6 14.8 29.6C6.66 29.6 0 22.94 0 14.8C0 6.66 6.66 0 14.8 0ZM14.8 2.96C11.988 2.96 9.472 3.848 7.548 5.476L24.124 22.052C25.604 19.98 26.64 17.464 26.64 14.8C26.64 8.288 21.312 2.96 14.8 2.96ZM22.052 24.124L5.476 7.548C3.848 9.472 2.96 11.988 2.96 14.8C2.96 21.312 8.288 26.64 14.8 26.64C17.612 26.64 20.128 25.752 22.052 24.124Z" fill="white"/>
</svg>
