<svg width="27" height="30" viewBox="0 0 27 30" fill="none" xmlns="http://www.w3.org/2000/svg">
<path d="M12.447 0.191447C13.0389 -0.0314427 13.6857 -0.0605003 14.295 0.108419L14.553 0.191447L25.053 4.15415C25.5854 4.35506 26.0501 4.70411 26.3929 5.1606C26.7358 5.6171 26.9427 6.16226 26.9895 6.73255L27 6.98163V15.0776C26.9999 17.5238 26.3437 19.9246 25.1004 22.0266C23.8572 24.1286 22.0731 25.8538 19.9365 27.0201L19.5375 27.2299L14.5065 29.7615C14.2295 29.9007 13.9269 29.9809 13.6177 29.997C13.3085 30.0131 12.9993 29.9648 12.7095 29.8551L12.4935 29.7615L7.4625 27.2299C5.28841 26.1359 3.44816 24.4714 2.13601 22.4122C0.823849 20.353 0.0884708 17.9754 0.00750017 15.5305L0 15.0776V6.98163C8.72257e-06 6.40969 0.16144 5.84951 0.465501 5.36632C0.769561 4.88312 1.20374 4.49678 1.7175 4.25227L1.947 4.15415L12.447 0.191447ZM13.5 3.01893L3 6.98163V15.0776C3.00004 16.9722 3.50618 18.8319 4.46543 20.462C5.42469 22.0922 6.80177 23.4328 8.4525 24.3436L8.805 24.5292L13.5 26.8918L18.195 24.5292C19.8791 23.682 21.3058 22.3945 22.3258 20.8018C23.3458 19.2091 23.9214 17.3697 23.9925 15.4762L24 15.0776V6.98163L13.5 3.01893Z" fill="white"/>
</svg>
