<svg width="25" height="30" viewBox="0 0 25 30" fill="none" xmlns="http://www.w3.org/2000/svg">
<path d="M14.308 0.00800084C12.8299 -0.0493746 11.356 0.202317 9.97689 0.747589C8.59777 1.29286 7.34265 2.12018 6.28874 3.17863C5.22509 4.22412 4.38004 5.47845 3.80454 6.86601C3.22903 8.25357 2.935 9.74561 2.94016 11.2522V11.2972L0.140116 17.3625C0.034617 17.591 -0.0125913 17.843 0.00286873 18.095C0.0183288 18.3471 0.0959565 18.5911 0.228552 18.8044C0.361148 19.0177 0.544418 19.1935 0.761362 19.3153C0.978307 19.4371 1.2219 19.501 1.46955 19.5012H2.94016V22.5009C2.94094 23.2962 3.25107 24.0587 3.80249 24.6211C4.3539 25.1834 5.10156 25.4997 5.88139 25.5005H7.352V28.5002C7.352 28.898 7.50694 29.2794 7.78273 29.5607C8.05852 29.842 8.43258 30 8.82261 30C9.21264 30 9.5867 29.842 9.86249 29.5607C10.1383 29.2794 10.2932 28.898 10.2932 28.5002V25.5005C10.6833 25.5005 11.0573 25.3425 11.3331 25.0612C11.6089 24.78 11.7638 24.3985 11.7638 24.0007C11.7638 23.6029 11.6089 23.2214 11.3331 22.9402C11.0573 22.6589 10.6833 22.5009 10.2932 22.5009H5.88139V18.0014C5.88139 17.6036 5.72645 17.2221 5.45065 16.9409C5.17486 16.6596 4.8008 16.5016 4.41077 16.5016H3.78723L5.75785 12.2361C5.85918 12.0186 5.90713 11.7792 5.89756 11.5387L5.88139 11.2522C5.87766 10.1475 6.09334 9.05341 6.51543 8.036C6.93752 7.01859 7.55727 6.0989 8.33731 5.33238C9.11642 4.56462 10.0382 3.96345 11.0484 3.56423C12.0586 3.165 13.1368 2.97577 14.2198 3.00765C16.3671 3.14436 18.3802 4.12013 19.8401 5.73198C21.3 7.34383 22.0945 9.46765 22.0581 11.6616L19.1654 22.9163C19.0979 23.1793 19.1009 23.4559 19.1742 23.7172L20.6449 28.9156C20.7334 29.2281 20.9191 29.5028 21.174 29.6984C21.4289 29.8939 21.7392 29.9998 22.0581 30C22.196 29.9992 22.333 29.979 22.4655 29.94C22.84 29.8298 23.1563 29.5726 23.3449 29.2247C23.5335 28.8768 23.579 28.4668 23.4714 28.0847L22.1125 23.2853L24.9508 12.3861C24.9827 12.2606 24.999 12.1317 24.9993 12.0021V11.6601C25.0307 8.68774 23.9368 5.81752 21.9453 3.64705C19.9538 1.47657 17.2182 0.1731 14.308 0.00800084Z" fill="white"/>
</svg>
