<svg width="30" height="26" viewBox="0 0 30 26" fill="none" xmlns="http://www.w3.org/2000/svg">
<path d="M17.8333 11.5834H16.4167V10.1667C16.4167 9.79098 16.2674 9.43065 16.0017 9.16497C15.7361 8.89929 15.3757 8.75004 15 8.75004C14.6243 8.75004 14.2639 8.89929 13.9983 9.16497C13.7326 9.43065 13.5833 9.79098 13.5833 10.1667V11.5834H12.1667C11.7909 11.5834 11.4306 11.7326 11.1649 11.9983C10.8993 12.264 10.75 12.6243 10.75 13C10.75 13.3758 10.8993 13.7361 11.1649 14.0018C11.4306 14.2674 11.7909 14.4167 12.1667 14.4167H13.5833V15.8334C13.5833 16.2091 13.7326 16.5694 13.9983 16.8351C14.2639 17.1008 14.6243 17.25 15 17.25C15.3757 17.25 15.7361 17.1008 16.0017 16.8351C16.2674 16.5694 16.4167 16.2091 16.4167 15.8334V14.4167H17.8333C18.2091 14.4167 18.5694 14.2674 18.8351 14.0018C19.1007 13.7361 19.25 13.3758 19.25 13C19.25 12.6243 19.1007 12.264 18.8351 11.9983C18.5694 11.7326 18.2091 11.5834 17.8333 11.5834ZM26.56 3.08337C25.0494 1.58837 23.0542 0.682506 20.9345 0.529238C18.8147 0.375971 16.7099 0.985392 15 2.24754C13.1975 0.906858 10.954 0.29893 8.72122 0.546175C6.48846 0.793421 4.43229 1.87747 2.9668 3.58003C1.5013 5.28259 0.735335 7.47719 0.823139 9.72189C0.910942 11.9666 1.846 14.0947 3.44 15.6775L11.94 24.2484C12.7369 25.0443 13.8171 25.4913 14.9433 25.4913C16.0696 25.4913 17.1498 25.0443 17.9467 24.2484L26.4467 15.6775C27.2838 14.8596 27.9511 13.8843 28.4101 12.8077C28.8691 11.7311 29.1108 10.5744 29.1214 9.40401C29.1319 8.23367 28.911 7.07279 28.4715 5.98808C28.0319 4.90337 27.3823 3.91622 26.56 3.08337ZM24.5625 13.6517L16.0625 22.1517C15.9308 22.2845 15.7741 22.3899 15.6015 22.4618C15.4289 22.5337 15.2437 22.5708 15.0567 22.5708C14.8697 22.5708 14.6845 22.5337 14.5119 22.4618C14.3392 22.3899 14.1825 22.2845 14.0508 22.1517L5.55084 13.6517C4.43983 12.516 3.8177 10.9904 3.8177 9.40171C3.8177 7.81296 4.43983 6.28738 5.55084 5.15171C6.68297 4.03394 8.20988 3.40718 9.80084 3.40718C11.3918 3.40718 12.9187 4.03394 14.0508 5.15171C14.1825 5.28449 14.3392 5.38988 14.5119 5.4618C14.6845 5.53372 14.8697 5.57075 15.0567 5.57075C15.2437 5.57075 15.4289 5.53372 15.6015 5.4618C15.7741 5.38988 15.9308 5.28449 16.0625 5.15171C17.1946 4.03394 18.7215 3.40718 20.3125 3.40718C21.9035 3.40718 23.4304 4.03394 24.5625 5.15171C25.682 6.28864 26.3095 7.82026 26.3095 9.41587C26.3095 11.0115 25.682 12.5431 24.5625 13.68V13.6517Z" fill="white"/>
</svg>
