<svg width="28" height="28" viewBox="0 0 28 28" fill="none" xmlns="http://www.w3.org/2000/svg">
<path d="M8.21226 1.66533C7.72223 1.24349 7.10774 1.01013 6.47338 1.00031L8.21226 1.66533ZM8.21226 1.66533L8.8556 0.918004M8.21226 1.66533L8.8556 0.918004M8.8556 0.918004L8.21227 1.66533C8.70279 2.0876 9.03877 2.67341 9.15826 3.32554M8.8556 0.918004L9.15826 3.32554M9.15826 3.32554C9.27779 3.97784 9.17236 4.65146 8.8619 5.23115M9.15826 3.32554L8.8619 5.23115M8.8619 5.23115C8.55164 5.81046 8.05736 6.25775 7.46693 6.50204M8.8619 5.23115L7.46693 6.50204M7.46693 6.50204C6.87693 6.74616 6.22368 6.77425 5.6164 6.58218M7.46693 6.50204L5.6164 6.58218M5.6164 6.58218C5.00875 6.39 4.48022 5.98768 4.12377 5.43822M5.6164 6.58218L4.12377 5.43822M4.12377 5.43822C3.76706 4.88836 3.60611 4.22677 3.67124 3.56616M4.12377 5.43822L3.67124 3.56616M3.67124 3.56616C3.73636 2.90571 4.02288 2.29206 4.47758 1.82802L3.67124 3.56616ZM21.0197 6.90054L19.9356 8.00782L17.1831 5.19797C16.9949 5.00589 16.7373 4.89768 16.4685 4.89774C16.1996 4.89781 15.9421 5.00616 15.754 5.19833L12.9792 8.03386C12.5987 8.42268 12.5988 9.04435 12.9795 9.43301L26.6004 23.3393L25.5164 24.4465L18.3653 17.1448C18.1771 16.9527 17.9195 16.8444 17.6506 16.8445C17.3817 16.8445 17.1242 16.9529 16.9361 17.1451L14.1613 19.9806C13.7808 20.3694 13.7809 20.991 14.1616 21.3797L18.1617 25.464L17.0773 26.5709L11.3078 20.6799L15.8818 16.0082C16.2625 15.6194 16.2624 14.9976 15.8817 14.6089L11.924 10.5686C11.7359 10.3766 11.4784 10.2684 11.2096 10.2684C10.9408 10.2684 10.6833 10.3766 10.4952 10.5686L5.94991 15.209L1.39976 10.5625L2.48351 9.45623L5.23545 12.2655C5.42356 12.4576 5.68106 12.5658 5.94987 12.5658C6.21868 12.5658 6.47617 12.4575 6.66425 12.2655L16.4691 2.25409L21.0197 6.90054ZM4.47769 1.8279C4.74134 1.55899 5.05395 1.34798 5.39647 1.20626C5.73893 1.06457 6.10499 0.994723 6.47321 1.00031L4.47769 1.8279Z" stroke="white" stroke-width="2" stroke-linecap="round" stroke-linejoin="round"/>
</svg>
