<svg width="20" height="20" viewBox="0 0 20 20" fill="none" xmlns="http://www.w3.org/2000/svg">
<path d="M6.94 10.94C7.2121 10.6691 7.5777 10.5129 7.96151 10.5035C8.34533 10.4941 8.71813 10.6323 9.00316 10.8895C9.28819 11.1467 9.46374 11.5034 9.49366 11.8862C9.52358 12.269 9.40559 12.6486 9.164 12.947L9.061 13.061L5.12 17H6.5C6.88522 17.0002 7.25559 17.1486 7.53439 17.4144C7.81318 17.6802 7.97901 18.0431 7.99752 18.4279C8.01604 18.8127 7.88581 19.1898 7.63382 19.4812C7.38184 19.7726 7.02742 19.9558 6.644 19.993L6.5 20H1.5C1.12712 20 0.767609 19.8611 0.491581 19.6104C0.215553 19.3597 0.0427967 19.0152 0.00699997 18.644L0 18.5V13.5C0.000190735 13.1148 0.148576 12.7444 0.414409 12.4656C0.680242 12.1868 1.04314 12.021 1.42791 12.0025C1.81269 11.984 2.18983 12.1142 2.4812 12.3662C2.77257 12.6182 2.95583 12.9726 2.993 13.356L3 13.5V14.879L6.94 10.939V10.94ZM18.5 0C18.8729 1.78986e-05 19.2324 0.13892 19.5084 0.389619C19.7844 0.640318 19.9572 0.98484 19.993 1.356L20 1.5V6.5C19.9998 6.88522 19.8514 7.25559 19.5856 7.53439C19.3198 7.81318 18.9569 7.97901 18.5721 7.99752C18.1873 8.01604 17.8102 7.88581 17.5188 7.63382C17.2274 7.38184 17.0442 7.02742 17.007 6.644L17 6.5V5.121L13.06 9.061C12.7882 9.33377 12.4219 9.49157 12.037 9.50173C11.6521 9.5119 11.278 9.37365 10.9922 9.1156C10.7064 8.85756 10.5308 8.49949 10.5017 8.11553C10.4726 7.73158 10.5923 7.35114 10.836 7.053L10.939 6.939L14.88 3H13.5C13.1148 2.99981 12.7444 2.85142 12.4656 2.58559C12.1868 2.31976 12.021 1.95686 12.0025 1.57209C11.984 1.18731 12.1142 0.810168 12.3662 0.518798C12.6182 0.227429 12.9726 0.0441715 13.356 0.00699997L13.5 0H18.5Z" fill="white"/>
</svg>
